<?xml version="1.0" encoding="utf-8"?>
<!-- Generator: Adobe Illustrator 18.1.0, SVG Export Plug-In . SVG Version: 6.00 Build 0)  -->
<!DOCTYPE svg PUBLIC "-//W3C//DTD SVG 1.1//EN" "http://www.w3.org/Graphics/SVG/1.1/DTD/svg11.dtd">
<svg version="1.1" id="图层_1" xmlns="http://www.w3.org/2000/svg" xmlns:xlink="http://www.w3.org/1999/xlink" x="0px" y="0px"
	 viewBox="0 0 72 72" enable-background="new 0 0 72 72" xml:space="preserve">
<rect x="-0.1" fill="#E7E7E7" width="72" height="72"/>
<path fill="#FBFBFB" d="M43,52.2c-0.2-2.4-0.1-4.1-0.1-6.3c1.1-0.6,3-4.2,3.3-7.3c0.8-0.1,2.1-0.9,2.5-4.2c0.2-1.8-0.6-2.8-1.1-3.1
	C49,27,51.8,14,42.4,12.6c-1-1.8-3.4-2.6-6.7-2.6c-12.9,0.2-14.4,10-11.6,21.2c-0.5,0.3-1.3,1.3-1.1,3.1c0.4,3.3,1.7,4.2,2.5,4.2
	c0.3,3.1,2.3,6.8,3.4,7.3c0,2.2,0.1,3.9-0.1,6.3c-2.2,6.2-16.2,6.1-19.6,15.4C8.4,69.7,9.6,72,12.4,72c10.9,0,39.6,0,48.4,0
	c1.3,0,2.7-1.5,1.7-4.3C59.2,58.3,45.3,58.4,43,52.2z"/>
</svg>
