<?xml version="1.0" encoding="utf-8"?>
<!-- Generator: Adobe Illustrator 18.1.0, SVG Export Plug-In . SVG Version: 6.00 Build 0)  -->
<!DOCTYPE svg PUBLIC "-//W3C//DTD SVG 1.1//EN" "http://www.w3.org/Graphics/SVG/1.1/DTD/svg11.dtd">
<svg version="1.1" id="图层_1" xmlns="http://www.w3.org/2000/svg" xmlns:xlink="http://www.w3.org/1999/xlink" x="0px" y="0px"
	 viewBox="0 0 58 28" enable-background="new 0 0 58 28" xml:space="preserve">
<rect opacity="0.5" fill="#040000" width="58" height="28"/>
<g>
	<path fill="#FFFFFF" d="M18.9,15.5h5.5c0,0.8-0.1,1.5-0.3,2.2c-0.2,0.7-0.6,1.3-1.1,1.8c-0.5,0.5-1.1,0.9-1.7,1.2
		c-0.7,0.3-1.5,0.4-2.4,0.4c-1,0-1.8-0.2-2.5-0.6c-0.7-0.4-1.3-0.9-1.8-1.5c-0.5-0.6-0.9-1.4-1.1-2.2C13.1,16,13,15.1,13,14.2
		c0-0.9,0.1-1.8,0.3-2.7c0.2-0.9,0.6-1.6,1-2.3c0.5-0.7,1.1-1.2,1.8-1.6C17,7.2,17.9,7,18.9,7c0.6,0,1.2,0.1,1.8,0.2
		c0.6,0.2,1.1,0.4,1.5,0.7c0.4,0.3,0.8,0.7,1.1,1.2c0.3,0.5,0.5,1,0.6,1.7h2.3c-0.2-1-0.5-1.9-0.9-2.6c-0.4-0.7-1-1.3-1.6-1.8
		c-0.6-0.5-1.4-0.8-2.2-1C20.7,5.1,19.8,5,18.9,5c-1.4,0-2.5,0.3-3.6,0.8c-1,0.5-1.9,1.2-2.5,2c-0.7,0.8-1.2,1.8-1.5,3
		c-0.3,1.1-0.5,2.3-0.5,3.6c0,1.1,0.2,2.2,0.6,3.2c0.4,1,0.9,2,1.6,2.8c0.7,0.8,1.6,1.4,2.6,1.9c1,0.5,2.2,0.7,3.4,0.7
		c1,0,2-0.2,3-0.6c1-0.4,1.8-1,2.5-1.9l0.6,2.1h1.4v-9h-7.5V15.5z M29.9,22.6h2.3V5.4h-2.3V22.6z M47.3,7.4V5.4H36v17.1h2.3v-7.8
		h7.9v-1.9h-7.9V7.4H47.3z"/>
</g>
</svg>
